# xmcd
#
# Track frame offsets:
#	150
#	30209
#	56061
#	84332
#	105217
#	131855
#	156633
#	179564
#	207242
#	229886
#	244205
#	273209
#	285724
#	302868
#	329294
#	337100
#
# Disc length: 4667 seconds
# Revision: 0
# Processed by: cddbd v1.5.2PL0 Copyright (c) Steve Scherf et al.
# Submitted via: dBpowerAMP V12.0
#
DISCID=e9123910
DTITLE=Mark Knopfler - Tracker
DYEAR=2015
DGENRE=Blues
TTITLE0=Laughs and Jokes and Drinks and Smokes
TTITLE1=Basil
TTITLE2=River Towns
TTITLE3=Skydiver
TTITLE4=Mighty Man
TTITLE5=Broken Bones
TTITLE6=Long Cool Girl
TTITLE7=Lights of Taormina
TTITLE8=Silver Eagle
TTITLE9=Beryl
TTITLE10=Wherever I Go Featuring Ruth Moody
TTITLE11=38 Spezial
TTITLE12=My Heart Has Never Changed
TTITLE13=Terminal of Tribut to
TTITLE14=Heart of Oak
TTITLE15=Hot Dog
EXTD=
EXTT0=
EXTT1=
EXTT2=
EXTT3=
EXTT4=
EXTT5=
EXTT6=
EXTT7=
EXTT8=
EXTT9=
EXTT10=
EXTT11=
EXTT12=
EXTT13=
EXTT14=
EXTT15=
PLAYORDER=
